<svg width="1920" height="228" viewBox="0 0 1920 228" fill="none" xmlns="http://www.w3.org/2000/svg">
<g clip-path="url(#clip0)">
<path d="M259 230.5C238.986 230.5 200.5 233.5 181 227.5C161.082 226.109 134.819 225.256 114.5 222.5C68.8 216.3 33.5 198 -10 179.6V-66.0688H1930.75V102.285C1928.98 105.22 1921.95 166.245 1919 168C1904.5 190 1893.5 196.27 1877 205C1864.96 211.37 1843 217.107 1822 222C1770.5 234 1785.5 229 1758.5 235C1744.84 239.991 1735.63 230.977 1721.5 235C1709.45 238.431 1708.84 232.153 1696 235C1709.16 232.782 1683.65 237.739 1696 235C1671.16 239.184 1647.57 236.522 1619 239C1602.19 240.458 1587.06 238.331 1568.5 239C1551.96 239.6 1540.91 239 1522 239C1504.51 239 1476.56 239.526 1454 239C1423 238.277 1395.65 252.067 1360.5 249.5C1331.16 247.358 1289.87 247.259 1253.5 243.5C1216.72 239.7 1191.03 244.215 1151 239C1115.25 234.342 1062.43 263.564 1022 257.5C964.627 248.894 919.393 295.37 870.5 293C852.967 292.15 845.651 237.5 828 237.5C802.865 237.5 716.866 255.774 691.5 257.5C666.571 259.194 631.149 246.143 606 249.5C578.941 253.112 580.901 243.185 548 249.5C518.676 255.129 541.557 231.441 513 237.5L494 244.5L447 237.5C417.881 243.675 375.922 237.5 375.922 237.5C375.922 237.5 348.874 236.512 338.757 237.5C338.757 237.5 321.971 233.681 316.5 234L299.5 236C285.456 237.456 294.2 231.777 280 232.5C265.995 233.211 273.163 230.5 259 230.5Z" fill="#007AFF"/>
</g>
<defs>
<clipPath id="clip0">
<rect width="1920" height="228" fill="white"/>
</clipPath>
</defs>
</svg>
